<?xml version="1.0" encoding="UTF-8"?>
<svg fill="none" viewBox="0 0 368 369" xmlns="http://www.w3.org/2000/svg">
  <g filter="url(#a)">
    <path
      d="m179.66 338.42c87.249 0 157.98-70.702 157.98-157.92 0-87.216-70.73-157.92-157.98-157.92-87.25 0-157.98 70.702-157.98 157.92 0 87.216 70.73 157.92 157.98 157.92z"
      fill="#1D1E1D" />
    <path d="M347.317 162.952C338.536 78.1388 266.829 12 179.655 12C92.48 12 20.7811 78.1388 12 162.952H347.317Z"
      fill="#C5312A" />
    <path d="m12 198.05c8.7811 84.813 80.488 150.95 167.66 150.95 87.166 0 158.88-66.139 167.65-150.95h-335.31z"
      fill="#E7E7E9" />
    <path
      d="m179.65 233.59c29.334 0 53.113-23.771 53.113-53.093s-23.779-53.093-53.113-53.093-53.114 23.771-53.114 53.093 23.78 53.093 53.114 53.093z"
      fill="#1D1E1D" />
    <path
      d="m218.23 195.84c8.472-21.287-1.922-45.41-23.218-53.879-21.295-8.47-45.427 1.921-53.9 23.208s1.922 45.41 23.217 53.879c21.296 8.47 45.428-1.921 53.901-23.208z"
      fill="#F7F7F7" />
    <path
      d="m179.66 208.48c15.461 0 27.995-12.529 27.995-27.984s-12.534-27.984-27.995-27.984-27.995 12.529-27.995 27.984 12.534 27.984 27.995 27.984z"
      fill="#B8B5B5" />
    <path
      d="m179.66 206.42c14.322 0 25.932-11.606 25.932-25.922 0-14.317-11.61-25.923-25.932-25.923s-25.933 11.606-25.933 25.923c0 14.316 11.611 25.922 25.933 25.922z"
      fill="#F7F7F7" />
  </g>
  <defs>
    <filter id="a" x="0" y="0" width="367.32" height="369" color-interpolation-filters="sRGB"
      filterUnits="userSpaceOnUse">
      <feFlood flood-opacity="0" result="BackgroundImageFix" />
      <feColorMatrix in="SourceAlpha" result="hardAlpha" values="0 0 0 0 0 0 0 0 0 0 0 0 0 0 0 0 0 0 127 0" />
      <feOffset dx="4" dy="4" />
      <feGaussianBlur stdDeviation="8" />
      <feColorMatrix values="0 0 0 0 0.00392157 0 0 0 0 0.109804 0 0 0 0 0.25098 0 0 0 0.2 0" />
      <feBlend in2="BackgroundImageFix" result="effect1_dropShadow_83_1301" />
      <feBlend in="SourceGraphic" in2="effect1_dropShadow_83_1301" result="shape" />
    </filter>
  </defs>
</svg>