<?xml version="1.0" encoding="UTF-8"?>
<svg fill="none" viewBox="0 0 1024 733" xmlns="http://www.w3.org/2000/svg">
  <g clip-path="url(#e)" opacity=".9">
    <path
      d="m292.84 208.94c30.051-35.017 25.983-87.715-9.088-117.7-35.071-29.989-87.863-25.913-117.91 9.1044-30.052 35.017-25.983 87.715 9.088 117.7 35.07 29.989 87.862 25.913 117.91-9.105z"
      fill="#1D1E1D" />
    <path d="m317.12 138.55c-8.09-44.342-48.628-76.271-94.636-72.719s-81.152 41.325-82.339 86.384l176.98-13.665z"
      fill="#42484A" />
    <path d="m141.57 170.71c8.09 44.342 48.627 76.271 94.623 72.72s81.164-41.326 82.339-86.383l-176.96 13.663z"
      fill="#E7E7E9" />
    <path
      d="m231.5 182.61c15.482-1.195 27.064-14.692 25.871-30.145-1.193-15.454-14.71-27.013-30.191-25.817-15.482 1.195-27.064 14.692-25.871 30.145 1.193 15.454 14.71 27.013 30.191 25.817z"
      fill="#1D1E1D" />
    <path
      d="m231.03 176.49c12.096-0.934 21.145-11.479 20.213-23.553s-11.493-21.105-23.589-20.171c-12.095 0.934-21.145 11.479-20.213 23.553 0.933 12.074 11.494 21.105 23.589 20.171z"
      fill="#F7F7F7" />
    <path
      d="m230.48 169.39c8.163-0.631 14.27-7.747 13.641-15.896-0.629-8.148-7.756-14.243-15.919-13.612-8.163 0.63-14.271 7.746-13.641 15.895 0.629 8.148 7.756 14.243 15.919 13.613z"
      fill="#B8B5B5" />
    <path
      d="m230.39 168.3c7.56-0.584 13.217-7.176 12.634-14.723s-7.184-13.192-14.745-12.608c-7.56 0.584-13.217 7.175-12.634 14.722s7.184 13.192 14.745 12.609z"
      fill="#F7F7F7" />
    <path
      d="m216.65 120.96-0.9-11.651 11.132-0.859 6.416 11.225 6.331-0.489-6.59-11.526c4.772-1.564 8.057-6.224 7.654-11.442-0.473-6.1193-5.848-10.727-11.99-10.253l-20.397 1.5748 0.22 2.8532 1.495 19.359 0.9 11.65 5.729-0.442zm-2.173-28.144 14.667-1.1325c2.984-0.2304 5.59 1.998 5.82 4.9764 0.23 2.9783-2.003 5.5801-4.987 5.8111l-14.667 1.132-0.833-10.787z"
      fill="#C5312A" />
  </g>
  <g filter="url(#d)">
    <path
      d="m768.05 101.15c-9.012 0-17.509 2.229-24.988 6.127-8.573-15.848-25.353-26.614-44.637-26.614-7.313 0-14.247 1.562-20.513 4.3371-9.665-29.601-37.476-50.999-70.309-50.999-36.368 0-66.576 26.25-72.751 60.841-5.993-2.0776-12.426-3.215-19.132-3.215-32.423 0-58.717 26.28-58.717 58.687s26.294 58.687 58.717 58.687h252.33c29.799 0 53.953-24.142 53.953-53.925 0-29.784-24.154-53.926-53.953-53.926z"
      fill="#fff" fill-opacity=".8" />
  </g>
  <g filter="url(#c)">
    <path
      d="m296.82 423.74c-5.877 0-11.417 1.452-16.294 3.991-5.59-10.323-16.532-17.337-29.106-17.337-4.768 0-9.29 1.017-13.375 2.825-6.302-19.283-24.437-33.222-45.845-33.222-23.714 0-43.412 17.1-47.438 39.633-3.908-1.353-8.103-2.094-12.475-2.094-21.142 0-38.287 17.12-38.287 38.23 0 21.111 17.145 38.231 38.287 38.231h164.53c19.43 0 35.18-15.727 35.18-35.129 0-19.401-15.75-35.128-35.18-35.128z"
      fill="#fff" fill-opacity=".8" />
  </g>
  <g filter="url(#b)">
    <path
      d="m835.39 338.42c87.25 0 157.98-70.702 157.98-157.92 0-87.216-70.729-157.92-157.98-157.92s-157.98 70.702-157.98 157.92c0 87.216 70.729 157.92 157.98 157.92z"
      fill="#1D1E1D" />
    <path d="m1003 162.95c-8.779-84.813-80.486-150.95-167.66-150.95s-158.87 66.139-167.66 150.95h335.32z"
      fill="#C5312A" />
    <path d="m667.73 198.05c8.781 84.813 80.488 150.95 167.66 150.95s158.88-66.139 167.65-150.95h-335.31z"
      fill="#E7E7E9" />
    <path
      d="m835.39 233.59c29.334 0 53.114-23.771 53.114-53.093s-23.78-53.093-53.114-53.093-53.114 23.771-53.114 53.093 23.78 53.093 53.114 53.093z"
      fill="#1D1E1D" />
    <path
      d="m873.96 195.84c8.473-21.287-1.922-45.41-23.218-53.879-21.295-8.47-45.427 1.921-53.9 23.208s1.922 45.41 23.218 53.879c21.295 8.47 45.427-1.921 53.9-23.208z"
      fill="#F7F7F7" />
    <path
      d="m835.39 208.48c15.461 0 27.995-12.529 27.995-27.984s-12.534-27.984-27.995-27.984-27.995 12.529-27.995 27.984 12.534 27.984 27.995 27.984z"
      fill="#B8B5B5" />
    <path
      d="m835.39 206.42c14.322 0 25.932-11.606 25.932-25.922 0-14.317-11.61-25.923-25.932-25.923s-25.933 11.606-25.933 25.923c0 14.316 11.611 25.922 25.933 25.922z"
      fill="#F7F7F7" />
  </g>
  <ellipse cx="478" cy="702" rx="93" ry="10" fill="url(#a)" fill-opacity=".6" />
  <path
    d="m515.36 40.789c3.352 1.4113 5.542 4.4726 7.929 7.0773 8.156 9.8066 14.59 20.869 21.107 31.786 1.09 1.65 2.636 2.9575 3.674 4.649 12.816 22.83 23.567 46.812 32.304 71.469-0.114 0.363-0.342 1.079-0.467 1.432l-0.238 0.145c-9.599-25.175-20.122-50.154-33.779-73.43-4.005 5.3132-6.537 11.529-8.945 17.683-4.213 11.363-7.814 23.287-7.679 35.522 0.301 4.296 2.158 8.229 3.622 12.224 5.489 14.29 11.934 28.455 21.46 40.544 4.265 0.405 8.509 1.007 12.733 1.702 0.176 0.436 0.529 1.329 0.706 1.775-7.607-1.162-15.224-2.563-22.945-2.439-30.218 0.094-59.618 10.959-84.575 27.594-3.829 2.822-8.022 5.344-11.042 9.09 4.722 3.985 11.893 5.21 15.359 10.668-2.895-0.996-5.427-2.74-8.001-4.348-13.823-8.167-29.233-13.2-44.758-16.988-22.311-5.116-45.131-8.364-68.044-8.343 1.64 7.97 6.092 14.943 10.668 21.533 7.326 10.17 16.292 19.073 25.964 27.002 2.345 2.221 5.728 2.366 8.727 3.02 11.654 2.044 23.433 3.984 35.294 4.047 0.28 0.228 0.84 0.685 1.11 0.903 7.545-0.499 15.11-0.426 22.664-0.716-0.861 2.054-3.331 1.535-5.064 1.847-4.836 0.238-9.682 0.155-14.518 0.176-3.009 15.94-2.573 32.284-1.162 48.369 1.287 11.737 2.947 23.557 6.994 34.702 1.36 3.954 3.622 7.513 5.002 11.456-1.172-0.902-2.335-1.795-3.507-2.687-6.963 10.045-12.505 20.952-18.565 31.547-2.989 5.054-6.092 10.253-10.637 14.082-1.961 1.733-5.49 2.563-7.192 0.052-1.359-2.532-0.965-5.573-0.84-8.333 0.747-7.628 2.957-15.006 4.96-22.374-5.313 1.65-10.948 2.356-16.085 4.483-11.062 11.26-17.371 26.079-26.618 38.697-2.542 3.114-5.718 6.922-10.18 6.538-3.103-1.505-3.258-5.479-3.248-8.468 0.695-10.813 3.528-21.46 7.959-31.329-21.885 4.473-42.298 17.112-54.813 35.771-1.484 2.148-2.719 4.441-3.902 6.766-0.404-0.125-1.235-0.374-1.65-0.498 1.277-2.346 2.512-4.701 3.871-7.005-10.823 1.287-21.18 4.794-31.391 8.458-11.758 3.341-23.91 5.531-36.134 6.143-5.625 0.457-11.26-1.027-16.853 0.052 1.795 2.646 4.888 3.705 7.918 4.151 0.353 0.404 1.079 1.214 1.432 1.619-0.322 0.446-0.654 0.892-0.976 1.338 6.299 0.747 12.412 2.813 18.835 2.698 2.781 0.384 6.237-0.809 8.468 1.401-2.864 0.208-5.728 0.27-8.572 0.623 7.721 1.567 15.67 1.494 23.516 1.432 8.592-0.374 17.164-1.162 25.756-1.515 0.031-4.317-0.238-8.821 1.733-12.795 0.374 1.39 0.561 2.833 0.332 4.286-1.992 16.645 5.604 33.124 16.947 44.975 12.66 13.107 27.79 23.411 41.8 34.961 9.215 7.866 19.831 15.857 23.598 27.884-3.549-2.708-4.473-7.492-7.908-10.346 6.029 12.38 12.256 24.677 17.828 37.286 4.265 9.589 11.758 17.465 20.589 23.017 4.992 3.539 10.793 5.614 16.075 8.634-2.605 0.861-4.971-0.799-7.265-1.764-4.566-2.076-8.779-4.784-12.94-7.534 1.92 9.08 7.565 16.593 12.359 24.314 2.937 6.268 6.714 12.11 9.589 18.409 2.2 5.345 3.466 11.197 7.129 15.826 5.002 6.465 11.561 12.525 19.821 14.227-3.269-6.102-8.541-10.855-11.633-17.071-0.789-1.183-0.861-2.625-0.363-3.933 3.694 7.482 9.526 13.553 13.812 20.662 0.415-0.519 1.235-1.547 1.64-2.065-2.065-6.258-8.167-10.367-9.724-16.801 4.39 3.476 6.309 9.038 10.305 12.909-0.83-5.5-4.442-9.91-6.258-15.047-3.777-9.163-5.251-19.011-7.378-28.631-0.685-3.477-1.494-6.912-2.418-10.315-0.726-0.384-2.19-1.131-2.916-1.505 5.303-1.692 10.782-2.968 15.784-5.49 9.308-4.472 17.123-11.882 22.207-20.848 5.272-9.329 8.832-19.468 12.381-29.534-3.747 2.958-7.119 6.382-10.948 9.226-0.602 0.622-1.453 0.062-2.138 0.083 28.091-24.211 53.101-51.96 74.748-82.054 4.701-6.673 9.215-13.501 13.003-20.744-8.831 1.94-17.559 4.42-26.514 5.801-10.492 2.044-21.139 3.102-31.631 5.116-6.319 0.913-12.577 2.241-18.637 4.223-0.094-0.363-0.26-1.1-0.343-1.463 10.564-2.117 21.097-4.452 31.682-6.455 29.078-4.036 57.885-10.937 85.032-22.249 11.758-3.995 22.436-11.487 35.117-12.359 0.415-2.128 0.841-4.255 1.266-6.372 2.097-0.301 4.203-0.602 6.31-0.872-0.913-1.961-1.702-3.964-2.574-5.935 2.283-0.301 4.556-0.602 6.849-0.903-1.473-1.972-3.113-3.788-4.877-5.49 2.013-1.806 4.358-3.175 6.756-4.41-3.083-2.003-6.507-3.321-9.942-4.525 0.374-2.283 0.602-4.576 0.882-6.859-5.054 0.488-10.45 2.698-15.317 0.363-17.216-7.088-35.719-10.45-54.17-12.349-29.596-2.46-59.649-1.598-88.716 4.867-5.375 0.799-10.512 2.605-15.815 3.705 0.83-1.64 2.584-2.18 4.13-2.865-12.982-7.762-16.5-26.213-10.024-39.257 3.943-8.468 15.151-11.747 23.411-7.897 10.492 4.753 16.884 16.728 15.587 28.091-0.28 5.179-2.532 9.963-5.355 14.228 17.58-2.999 35.439-3.861 53.257-3.767-7.71-11.447-11.612-24.792-16.728-37.463-0.82-0.975-1.63-1.951-2.418-2.936 8.136 3.704 18.42 3.974 25.704-1.765 3.705-2.5 5.231-7.191 9.112-9.464 7.482-3.02 16.178-0.685 23.411-4.628 3.279-1.339 4.452-4.971 6.849-7.306 0.322 4.297-3.31 6.6-5.739 9.402-0.321 18.98-1.826 38.199-7.658 56.38 6.797 0.976 13.573 2.076 20.308 3.477 6.548-5.002 12.619-10.658 18.015-16.884l0.665-0.291c0.456-0.135 1.349-0.404 1.795-0.529-4.722 6.776-11.343 11.903-17.341 17.476-0.01 0.28-0.02 0.84-0.031 1.12 7.638 1.951 15.213 4.203 22.498 7.233 4.981 2.636 10.388-0.788 15.649-0.332 0.696 2.397 0.395 4.857-0.135 7.254 3.435 1.598 8.126 2.19 9.838 6.04-1.909 1.442-4.005 2.594-6.216 3.476 1.764 2.148 3.643 4.265 4.846 6.818-2.127 0.82-4.4 1.027-6.641 1.245 0.778 2.003 1.598 3.975 2.47 5.946-2.397 0.405-4.805 0.748-7.192 1.1-0.529 2.221-1.152 4.432-1.816 6.621-10.958 0.249-20.485 6.112-30.364 10.108-14.009 5.936-28.465 10.751-43.076 14.964-8.001 15.265-18.659 28.942-29.233 42.506-13.73 16.967-28.424 33.186-44.198 48.285-1.193 1.432-1.65 3.3-2.334 5.013-3.954 11.062-7.825 22.311-14.176 32.284-7.492 11.456-19.924 18.886-33.01 22.228 3.881 12.961 4.701 26.742 9.941 39.309 1.962 5.22 5.604 9.776 6.465 15.4-0.311 0.447-0.944 1.339-1.255 1.785 0.301 1.536 1.235 3.622-0.53 4.67-3.383 2.459-7.824 1.526-11.124-0.581-8.551-5.043-15.961-12.837-18.918-22.477-2.823-8.966-8.126-16.791-12.308-25.124-5.282-8.032-11.02-16.261-12.432-26.016-6.797-5.376-12.567-12.214-16.022-20.205-6.175-13.947-12.775-27.728-20.184-41.073-1.069-1.982-2.294-3.913-3.996-5.407-14.663-13.158-31.049-24.231-45.691-37.421-11.571-10.782-21.139-24.988-22.436-41.125-14.092 0.789-28.237 2.179-42.35 1.058-6.724-0.56-13.594-1.307-19.81-4.078-5.448-2.024-11.716-3.393-15.245-8.458-1.556-1.338-0.186-3.777 1.63-3.829 4.493-0.923 9.049 0.623 13.594 0.301 12.64-0.405 25.258-2.542 37.4-6.071 10.73-4.036 21.803-7.212 33.176-8.831-1.805-8.686-3.621-17.382-5.801-25.995-16.012 5.988-31.931 12.276-48.068 17.922 0.426-17.87 1.65-35.813 4.919-53.413-19.187 9.07-38.136 18.69-57.241 27.967-0.747 0.26-2.262 0.789-3.02 1.049 0.394-26.203 1.162-52.416 2.968-78.567 0.197-3.996 1.193-7.96 0.903-11.976-20.049 7.96-38.552 19.209-57.034 30.209-11.664 6.952-22.851 14.673-33.602 22.965-12.941-15.348-26.099-30.52-39.102-45.827-1.6396-2.013-3.3519-3.964-5.2509-5.728 0.3424-0.259 1.0273-0.789 1.3802-1.059l0.2802-0.145c12.878 15.867 26.524 31.112 39.59 46.833 1.214 1.038 2.096 3.176 3.84 3.145 3.051-1.682 5.583-4.12 8.457-6.082 14.529-10.346 29.877-19.488 45.36-28.34 12.359-6.756 24.729-13.844 38.209-18.161-3.393 30.074-3.912 60.386-4.379 90.626 18.565-9.194 37.151-18.326 55.706-27.552 1.65-0.799 3.351-1.474 5.064-2.138-0.893 7.036-2.989 13.968-2.667 21.129-0.125 5.105-1.225 10.138-0.914 15.265-0.819 5.697-1.224 11.436-1.141 17.205 5.085-2.698 10.647-4.285 15.991-6.361 10.585-3.84 20.973-8.188 31.651-11.757 1.495 8.976 4.203 17.714 5.511 26.711 2.179-3.684 5.137-6.797 8.271-9.682 0.031-5.376 0.259-10.803-0.851-16.106-0.467-7.223-0.115-14.487-0.125-21.72-9.09 3.01-18.389 5.594-26.908 10.097-2.439 1.37-4.982 2.533-7.669 3.321 0.622-7.471 3.279-14.57 4.898-21.854 0.218-0.395 0.643-1.194 0.861-1.588 5.459-17.185 9.527-34.92 17.009-51.41-6.04 0.82-12.007 2.169-17.829 3.944-17.226 5.292-34.349 11.031-50.797 18.44 0.301-11 2.003-21.896 3.601-32.771 3.321-22.218 8.219-44.156 12.609-66.187 3.58-17.009 7.617-33.934 12.214-50.704-27.438 7.275-54.388 16.407-80.549 27.427-26.701 10.71-52.25 24.024-77.436 37.867-18.026 10.129-35.605 21.149-52.063 33.685 4.1094 5.013 8.5821 9.734 12.505 14.881-0.2491 0.457-0.7472 1.37-0.9962 1.827-3.7981-6.247-9.5161-11.052-13.698-17.029 24.2-19.178 51.617-33.654 78.65-48.359 43.18-22.228 88.592-40.555 135.77-52.302-6.444 22.602-11.363 45.598-15.94 68.636-5.396 26.649-11.114 53.381-12.951 80.559 15.11-6.952 30.977-12.027 46.865-16.852 7.388-2.138 14.839-4.286 22.518-5.096-6.817 15.39-11.435 31.61-16.147 47.736-2.49 8.489-4.576 17.081-6.61 25.695 3.092-0.831 5.801-2.584 8.707-3.861 8.25-3.715 16.852-6.88 25.818-8.343-0.674 12.764 0.27 25.538 1.132 38.282 10.678-8.8 22.799-16.106 36.279-19.624 12.349-3.206 25.123-4.306 37.545-7.181-5.728-10.128-10.637-20.682-15.493-31.246-4.11-8.862-8.333-17.704-11.312-27.023-0.871-4.234-6.61-4.649-7.544-8.758 2.034-1.484 4.192-2.792 6.444-3.933-0.653-1.588-1.919-3.093-1.795-4.878 1.162-1.618 3.321-1.971 5.023-2.822-0.592-1.796-2.356-4.068-0.685-5.78 2.573-1.152 5.438-1.287 8.198-1.692 0.633-1.826 0.145-4.587 2.304-5.448 2.812-0.509 5.489 0.965 8.146 1.66 1.961-2.189 4.369-3.995 7.285-4.628 1.65 3.03 2.646 6.403 4.514 9.329 2.584 2.377 5.728 4.058 8.603 6.081 9.225 6.04 18.036 12.702 26.171 20.153-1.577-16.77-2.739-33.975 1.09-50.537-25.518-1.806-50.911-6.217-75.288-14.134-18.035-5.791-35.812-12.806-52.135-22.53-5.521-3.248-10.71-7.087-15.338-11.539 2.957-3.238 7.399-4.442 11.373-5.978 14.072-4.337 28.901-5.427 43.565-5.354 28.382-0.499 56.764 3.684 84.025 11.508 8.074 2.418 16.043 5.21 23.733 8.676 7.908-7.846 17.538-13.636 27.241-18.96 23.65-12.868 50.672-20.236 77.705-18.606-10.253-14.103-17.714-30.084-23.152-46.605-3.632-14.186-8.208-28.154-10.616-42.63-3.653-19.603-4.763-39.694-2.916-59.566zm-135.64 247.15c-2.626-0.706-5.199-2.138-7.97-1.899-1.058 1.494-0.633 3.538-0.913 5.282-3.145 0.29-6.268 0.747-9.361 1.359 0.716 1.993 1.599 3.912 2.616 5.78-2.066 0.613-4.12 1.266-6.175 1.879 0.685 1.816 1.66 3.507 2.677 5.157-2.386 1.308-4.773 2.636-7.077 4.089 1.629 1.287 3.31 2.501 4.898 3.84 2.688 2.106 2.875 5.79 4.224 8.717 1.92 4.41 3.352 9.08 5.697 13.283 5.697 13.781 12.09 27.323 19.592 40.212 4.608-1.121 9.174-2.377 13.761-3.549 11.954-3.456 23.847-8.095 33.716-15.846-5.023-10.762-7.296-22.519-8.707-34.235-0.093-3.031-3.02-4.639-4.908-6.569-9.122-8.032-19.188-14.913-29.306-21.627-3.912-2.22-4.763-6.994-6.538-10.751-2.2 1.453-4.275 3.103-6.226 4.878zm174.08 49.261c-5.957 4.265-13.563 4.442-20.568 3.684 1.588 5.905 4.369 11.394 6.06 17.278 2.927 6.434 5.438 13.273 10.025 18.763 9.568 0.799 19.271 1.006 28.859 2.127 3.103-10.118 5.033-20.547 6.279-31.049-3.051-4.96-6.32-9.879-10.679-13.802-2.843-2.864-6.101-5.241-9.256-7.721-4.39 2.761-6.164 8.146-10.72 10.72zm-91.549 9.163c-4.514 7.897-4.39 17.922-0.996 26.213 2.345 5.293 6.133 10.627 11.996 12.246 5.988-0.561 11.747-2.574 17.714-3.363 10.72-11.031 8.25-30.976-4.4-39.475-7.42-5.5-19.592-3.881-24.314 4.379zm-56.546 26.452c-2.335 6.372-3.85 13.034-5.106 19.696-0.56 3.85-1.474 8.282 1.09 11.644 1.722-0.55 3.621-0.945 4.939-2.304 5.583-5.469 9.008-12.608 12.899-19.271 3.965-7.254 8.157-14.383 12.318-21.512-8.198 4.981-17.07 8.686-26.14 11.747zm-48.079 9.983c-4.576 9.236-7.191 19.364-8.25 29.586-0.394 3.03 0.125 6.06 1.121 8.935 4.421 0.187 7.306-3.559 9.755-6.693 5.645-7.7 9.921-16.272 15.286-24.159 2.594-4.275 5.988-7.991 8.654-12.214-8.841 1.619-17.714 3.061-26.566 4.545z"
    fill="#000" />
  <path
    d="m580.47 160.17c0.301-0.592 0.622-1.173 0.965-1.733 3.756 12.515 7.97 25.009 9.474 38.054 0.312 1.473-0.083 3.424 1.412 4.389 14.341 11.363 23.401 28.382 27.655 45.961 2.626 12.516 5.044 25.166 9.61 37.162 2.418 6.838 6.008 13.158 9.64 19.416 4.255 7.451 4.899 16.5 3.01 24.771-2.584 11.384-8.831 21.543-15.961 30.634-1.691 2.065-3.538 4.036-4.763 6.434-0.27-0.364-0.799-1.08-1.058-1.433l-0.239-0.384c5.054-5.385 9.36-11.446 13.262-17.703-2.646-1.432-5.303-3.072-6.901-5.697-5.531-8.282-6.34-18.763-5.718-28.434 0.81-7.586 2.782-16.231 9.745-20.537-4.929-12.059-8.229-24.688-10.772-37.431-3.258-17.248-10.626-34.173-23.017-46.833-3.123-3.404-7.337-5.48-10.637-8.665 0.851 0.083 2.564 0.249 3.415 0.332-1.443-12.848-5.075-25.3-9.008-37.566l-0.114-0.737zm44.685 140.4c-3.84 10.43-3.653 22.166-0.187 32.668 1.754 4.421 4.421 9.88 9.713 10.544 4.68-9.516 8.613-20.215 6.444-30.966-1.172-7.482-6.651-13.096-9.401-19.946-3.456 1.08-5.272 4.577-6.569 7.7z"
    fill="#000" />
  <path
    d="m595.16 264.66c2.999-1.38 6.631-1.048 9.413 0.696 5.873 3.3 8.903 9.931 10.045 16.313 0.643 4.514-0.405 9.672-3.933 12.806-2.47 1.774-5.895 2.552-8.738 1.255-6.766-2.407-10.606-9.371-12.038-16.043-1.006-5.345 0-12.204 5.251-15.027zm0.934 1.951c-1.432 0.436-2.532 1.63-2.957 3.041-1.526 5.054 1.743 11.093 6.755 12.619 2.076-0.011 4.847 0.28 6.175-1.702 3.756-6.123-2.678-16.313-9.973-13.958z"
    fill="#000" />
  <path
    d="m489.2 299.92c8.831-3.913 20.36 0.332 23.65 9.619 4.763 10.897-3.995 24.481-15.794 24.865-9.226 1.162-18.472-6.268-19.136-15.556-0.872-7.928 3.954-15.888 11.28-18.928zm4.971 1.618c-5.614 2.304-6.31 10.99-1.142 14.186 4.265 3.674 11.197 0.177 11.768-5.147 1.308-5.749-5.033-11.664-10.626-9.039z"
    fill="#000" />
  <path
    d="m562.83 310.07c1.806-1.837 3.985-3.3 6.6-3.591-0.156 1.733 1.038 4.13-0.872 5.23-1.94 1.453-4.296-0.249-5.728-1.639z"
    fill="#000" />
  <path
    d="m224.7 437.6c8.043 1.712 16.293 2.034 24.48 2.573 0.042 2.439-2.854 1.184-4.275 1.464-6.829-0.602-13.781-0.747-20.444-2.522 0.063-0.374 0.177-1.131 0.239-1.515z"
    fill="#000" />
  <path
    d="m536.94 101.6c2.407-6.1538 4.94-12.37 8.945-17.683 13.657 23.276 24.179 48.255 33.779 73.43l0.238-0.145c0.145 0.747 0.415 2.221 0.561 2.968l0.114 0.737c3.933 12.266 7.565 24.718 9.007 37.566-0.851-0.083-2.563-0.249-3.414-0.332 3.3 3.185 7.513 5.261 10.637 8.665 12.39 12.66 19.758 29.586 23.017 46.833 2.542 12.743 5.842 25.372 10.772 37.431-6.964 4.306-8.935 12.951-9.745 20.537-0.622 9.671 0.187 20.152 5.718 28.434 1.598 2.625 4.255 4.265 6.901 5.697-3.902 6.257-8.208 12.318-13.262 17.704l0.239 0.384c-0.135 0.809-0.717 1.432-1.765 1.867l-0.664 0.291c-5.396 6.226-11.467 11.882-18.015 16.884-6.735-1.401-13.511-2.501-20.308-3.476 5.832-18.182 7.336-37.4 7.658-56.381 2.428-2.802 6.061-5.105 5.739-9.402-2.397 2.335-3.57 5.967-6.849 7.306-7.233 3.944-15.93 1.609-23.412 4.628-3.881 2.273-5.406 6.964-9.111 9.465-7.285 5.738-17.569 5.468-25.705 1.764 0.789 0.986 1.598 1.961 2.418 2.937 5.116 12.67 9.018 26.016 16.729 37.462-17.818-0.094-35.678 0.768-53.257 3.767 2.823-4.265 5.075-9.049 5.355-14.228 1.297-11.363-5.096-23.338-15.587-28.091-8.26-3.85-19.468-0.571-23.411 7.897-6.476 13.044-2.958 31.495 10.024 39.258-1.546 0.685-3.3 1.224-4.13 2.864 5.303-1.1 10.44-2.906 15.815-3.705 29.067-6.465 59.12-7.326 88.716-4.867 18.451 1.899 36.954 5.261 54.17 12.349 4.867 2.335 10.263 0.125 15.317-0.363-0.28 2.283-0.509 4.576-0.882 6.859 3.435 1.204 6.859 2.522 9.941 4.525-2.397 1.235-4.742 2.605-6.755 4.41 1.764 1.702 3.403 3.518 4.877 5.49-2.293 0.301-4.566 0.602-6.849 0.903 0.872 1.971 1.66 3.974 2.574 5.936-2.107 0.269-4.214 0.57-6.31 0.871-0.425 2.117-0.851 4.245-1.266 6.372-12.681 0.872-23.359 8.364-35.117 12.359-9.526-0.55-19.022 0.997-28.548 1.028-22.841 1.193-46.013-0.073-68.47 5.012-14.756 3.227-26.41 14.705-33.332 27.708-1.94 3.964-4.39 8.322-3.539 12.888 2.315 1.142 4.857-0.249 7.015-1.11 7.918-3.881 15.245-8.852 22.509-13.812 2.449-1.64 4.67-3.581 6.631-5.77 10.492-2.013 21.139-3.072 31.63-5.116 8.956-1.38 17.683-3.861 26.514-5.801-3.787 7.243-8.301 14.072-13.002 20.744-21.648 30.095-46.657 57.844-74.748 82.054 0.684-0.021 1.535 0.54 2.137-0.083 3.83-2.843 7.202-6.268 10.948-9.226-3.549 10.067-7.108 20.205-12.38 29.534-5.085 8.966-12.899 16.376-22.207 20.849 0.674-7.514 0.685-15.297-2.076-22.436-4.68-12.474-14.113-22.457-24.169-30.883-13.345-11.156-27.697-21.035-42.319-30.406-7.035-4.618-14.818-8.406-20.422-14.86-14.29-15.089-22.436-34.474-33.031-52.064-3.238-5.479-7.161-11.176-13.346-13.532-4.088-1.826-8.53-0.342-12.712 0.146-1.463 0.041-3.3 0.809-4.358-0.592-1.08-5.106 1.421-10.045 1.577-15.13 12.515-18.659 32.927-31.298 54.813-35.771-4.431 9.869-7.264 20.516-7.959 31.329-0.011 2.989 0.145 6.964 3.248 8.468 4.462 0.384 7.638-3.424 10.18-6.537 9.246-12.619 15.556-27.438 26.618-38.698 5.137-2.127 10.772-2.833 16.085-4.483-2.003 7.368-4.213 14.747-4.96 22.374-0.125 2.76-0.519 5.801 0.84 8.333 1.702 2.511 5.23 1.681 7.192-0.052 4.545-3.829 7.648-9.028 10.636-14.082 6.061-10.595 11.602-21.502 18.565-31.547 1.173 0.892 2.335 1.785 3.508 2.688-1.38-3.944-3.642-7.503-5.002-11.457-4.047-11.145-5.707-22.965-6.994-34.702-1.412-16.085-1.847-32.429 1.162-48.369 6.974 2.844 13.356 7.306 20.89 8.613 1.93 0.654 3.217-1.151 4.348-2.386 2.978-3.778 5.79-7.97 6.621-12.796-0.706-0.539-1.484-0.726-2.346-0.581-11.311 1.256-22.155 6.216-33.705 4.94-11.862-0.062-23.64-2.003-35.294-4.047-2.999-0.654-6.382-0.799-8.727-3.02-9.672-7.928-18.638-16.832-25.964-27.002-4.577-6.59-9.029-13.563-10.668-21.533 22.913-0.021 45.733 3.227 68.044 8.343 15.525 3.788 30.935 8.821 44.758 16.988 2.573 1.609 5.105 3.352 8.001 4.348-3.466-5.458-10.637-6.683-15.359-10.668 3.02-3.746 7.212-6.268 11.042-9.09 24.957-16.635 54.356-27.5 84.575-27.594 7.721-0.124 15.338 1.277 22.944 2.439-0.176-0.446-0.529-1.339-0.705-1.775-0.955-2.552-2.304-4.939-4.089-6.994-5.739-6.756-11.84-13.21-17.019-20.412-6.299-8.551-11.757-17.683-16.707-27.064-0.135-12.235 3.466-24.159 7.679-35.522zm58.217 163.06c-5.251 2.823-6.258 9.683-5.251 15.027 1.432 6.673 5.272 13.636 12.038 16.043 2.843 1.297 6.268 0.519 8.737-1.255 3.529-3.134 4.577-8.292 3.933-12.806-1.141-6.382-4.171-13.013-10.045-16.313-2.781-1.744-6.413-2.076-9.412-0.696zm-105.96 35.263c-7.327 3.04-12.152 11-11.28 18.928 0.664 9.288 9.91 16.718 19.135 15.556 11.799-0.384 20.558-13.968 15.795-24.864-3.29-9.288-14.819-13.533-23.65-9.62zm73.627 10.149c1.432 1.39 3.788 3.092 5.728 1.639 1.91-1.1 0.716-3.497 0.872-5.23-2.615 0.291-4.794 1.754-6.6 3.591z"
    fill="#FFD723" />
  <path
    d="m176.27 205.51c26.161-11.02 53.111-20.152 80.549-27.427-4.598 16.77-8.634 33.695-12.215 50.704-4.389 22.031-9.287 43.969-12.608 66.187-1.598 10.875-3.3 21.771-3.601 32.771 16.448-7.409 33.571-13.148 50.797-18.44 5.822-1.775 11.789-3.124 17.828-3.944-7.482 16.49-11.55 34.225-17.008 51.41-1.66-12.245-1.017-24.678-2.148-36.975-2.636 0.613-5.251 1.349-7.721 2.46-15.898 6.901-31.225 15.016-46.428 23.307-3.466 1.972-6.87 4.079-10.544 5.666-0.467-13.864-0.269-27.738-0.031-41.592 0.187-10.056 1.339-20.049 1.391-30.105 0.737-17.361 1.442-34.764 4.047-51.97-7.69 3.155-14.705 7.68-21.616 12.246-24.169 16.126-44.892 36.725-64.558 57.957-8.582 9.527-16.603 19.593-23.67 30.302-2.75 4.099-4.95 8.551-7.887 12.546-13.065-15.721-26.711-30.966-39.59-46.833l-0.2802 0.146c-0.6538-0.55-1.2141-1.215-1.7019-1.983-3.9226-5.147-8.3953-9.868-12.505-14.881 16.458-12.536 34.038-23.556 52.063-33.685 25.186-13.843 50.735-27.157 77.436-37.867z"
    fill="#FFD723" />
  <path
    d="m379.72 287.94c1.951-1.775 4.027-3.425 6.227-4.877 1.774 3.756 2.625 8.53 6.538 10.751 10.118 6.714 20.184 13.594 29.305 21.626 1.889 1.93 4.815 3.539 4.909 6.569 1.411 11.716 3.684 23.473 8.706 34.235-9.868 7.752-21.761 12.39-33.716 15.846-9.661-13.376-19.686-27.085-33.352-36.663-2.346-4.203-3.778-8.873-5.698-13.283-1.349-2.927-1.536-6.611-4.223-8.717-1.588-1.339-3.269-2.553-4.898-3.84 2.303-1.453 4.69-2.781 7.077-4.089-1.017-1.65-1.992-3.341-2.677-5.157 2.054-0.612 4.109-1.266 6.174-1.878-1.017-1.868-1.899-3.788-2.615-5.781 3.093-0.612 6.216-1.068 9.36-1.359 0.281-1.743-0.145-3.788 0.914-5.282 2.77-0.239 5.344 1.193 7.969 1.899z"
    fill="#FFD723" />
  <path
    d="m267.62 426.64c10.211-3.664 20.567-7.171 31.391-8.458-1.359 2.304-2.594 4.66-3.871 7.005-9.225 2.501-18.108 6.787-25.248 13.2-2.345 2.003-3.57 4.888-4.638 7.71-7.846 0.062-15.795 0.135-23.516-1.432 2.844-0.353 5.708-0.415 8.572-0.623-2.231-2.21-5.687-1.016-8.468-1.4-6.423 0.114-12.536-1.951-18.835-2.699 0.322-0.446 0.654-0.892 0.976-1.338-0.353-0.405-1.079-1.214-1.432-1.619-3.03-0.446-6.123-1.505-7.918-4.151 5.593-1.079 11.228 0.405 16.853-0.052 12.224-0.612 24.376-2.802 36.134-6.143zm-42.921 10.958c-0.062 0.384-0.177 1.142-0.239 1.515 6.662 1.775 13.615 1.92 20.444 2.522 1.421-0.28 4.316 0.975 4.275-1.463-8.188-0.54-16.438-0.862-24.48-2.574z"
    fill="#FFD723" />
  <path
    d="m434.11 636.93c4.441-6.102 4.223-14.123 6.994-20.941 2.127 9.62 3.601 19.468 7.378 28.631 1.816 5.137 5.428 9.547 6.258 15.047-3.995-3.871-5.915-9.433-10.305-12.909 1.557 6.434 7.659 10.543 9.724 16.801-0.405 0.519-1.225 1.546-1.64 2.065-4.286-7.109-10.118-13.179-13.812-20.662-0.498 1.308-0.426 2.75 0.363 3.933 3.092 6.217 8.364 10.969 11.633 17.071-8.26-1.702-14.819-7.762-19.821-14.227-3.663-4.628-4.929-10.481-7.129-15.826 3.414 0.405 6.984 2.315 10.357 1.017z"
    fill="#FFD723" />
  <path
    d="m529.27 137.12c4.95 9.381 10.409 18.513 16.708 27.064 5.178 7.202 11.28 13.656 17.019 20.412 1.784 2.055 3.134 4.442 4.088 6.994-4.223-0.695-8.468-1.297-12.733-1.702-9.526-12.089-15.971-26.254-21.46-40.544-1.463-3.995-3.321-7.928-3.622-12.224z"
    fill="#E1991C" />
  <path
    d="m196.96 239.81c6.912-4.566 13.927-9.091 21.616-12.246-2.604 17.206-3.31 34.609-4.047 51.97-0.052 10.056-1.204 20.049-1.39 30.105-0.239 13.854-0.436 27.728 0.031 41.592 3.673-1.587 7.077-3.694 10.543-5.666 15.203-8.291 30.53-16.406 46.428-23.307 2.47-1.111 5.085-1.847 7.721-2.46 1.131 12.297 0.488 24.73 2.148 36.975-0.218 0.394-0.643 1.193-0.861 1.588-2.366 3.237-4.421 6.693-6.403 10.18-0.342-3.653-0.685-7.306-1.183-10.938-2.086 3.528-3.248 7.472-4.67 11.291-0.114-5.106 0.872-10.15 0.82-15.255-3.995 6.32-6.714 13.335-10.004 20.028-0.155-4.016-0.186-8.053-0.851-12.017-0.259 0.052-0.788 0.156-1.048 0.208-2.179 3.59-3.829 7.482-5.375 11.384-0.322-7.161 1.774-14.093 2.667-21.129-1.712 0.665-3.414 1.339-5.064 2.138-18.555 9.226-37.141 18.358-55.706 27.552 0.467-30.24 0.986-60.552 4.379-90.625-13.48 4.316-25.85 11.404-38.209 18.16-15.483 8.852-30.831 17.994-45.36 28.34-2.874 1.962-5.406 4.4-8.457 6.082-1.744 0.031-2.626-2.107-3.84-3.145 2.937-3.995 5.137-8.447 7.887-12.546 7.067-10.709 15.089-20.775 23.671-30.302 19.665-21.232 40.388-41.831 64.557-57.957z"
    fill="#E1991C" />
  <path
    d="m458.14 259.26c0.861-0.145 1.639 0.042 2.345 0.581-0.83 4.826-3.642 9.018-6.621 12.795-1.131 1.235-2.418 3.041-4.348 2.387-7.534-1.307-13.916-5.77-20.889-8.613 4.835-0.021 9.682 0.062 14.517-0.176 1.733-0.312 4.203 0.207 5.065-1.848-7.555 0.291-15.12 0.218-22.665 0.716-0.269-0.217-0.83-0.674-1.11-0.902 11.55 1.276 22.394-3.684 33.706-4.94z"
    fill="#E1991C" />
  <path
    d="m368.33 335.42c13.667 9.578 23.691 23.286 33.353 36.663-4.587 1.172-9.153 2.428-13.761 3.549-7.502-12.889-13.895-26.431-19.592-40.212z"
    fill="#E1991C" />
  <path
    d="m296.79 425.68c1.183-2.325 2.418-4.618 3.902-6.766-0.156 5.085-2.657 10.024-1.578 15.13 1.059 1.401 2.895 0.633 4.359 0.591 4.182-0.487 8.623-1.971 12.712-0.145 6.185 2.356 10.107 8.053 13.345 13.532 10.595 17.59 18.742 36.975 33.031 52.063 5.604 6.455 13.387 10.243 20.423 14.861 14.622 9.371 28.974 19.25 42.319 30.405 10.056 8.427 19.489 18.41 24.169 30.883 2.76 7.14 2.75 14.923 2.075 22.436-5.002 2.522-10.481 3.798-15.784 5.49 0.727 0.373 2.19 1.121 2.916 1.505 0.924 3.403 1.733 6.838 2.418 10.315-2.771 6.818-2.553 14.839-6.994 20.941-3.373 1.297-6.943-0.612-10.357-1.017-2.874-6.299-6.652-12.141-9.588-18.409-4.795-7.721-10.44-15.234-12.36-24.314 4.161 2.75 8.375 5.458 12.941 7.534 2.293 0.965 4.659 2.625 7.264 1.764-5.282-3.02-11.083-5.096-16.075-8.634-8.831-5.552-16.323-13.428-20.588-23.017-5.573-12.609-11.799-24.906-17.829-37.286 3.435 2.854 4.359 7.638 7.908 10.346-3.767-12.027-14.383-20.018-23.598-27.884-14.01-11.55-29.14-21.854-41.8-34.961-11.343-11.851-18.939-28.33-16.946-44.976 0.228-1.452 0.041-2.895-0.333-4.285-1.971 3.974-1.701 8.478-1.733 12.795-8.592 0.353-17.164 1.141-25.756 1.515 1.069-2.823 2.293-5.708 4.639-7.71 7.139-6.414 16.022-10.699 25.248-13.2 0.415 0.124 1.245 0.373 1.65 0.498z"
    fill="#E1991C" />
  <path
    d="m571.84 440.8c9.527-0.031 19.022-1.577 28.549-1.027-27.148 11.311-55.955 18.212-85.033 22.249-10.584 2.003-21.117 4.338-31.682 6.455 0.083 0.363 0.249 1.1 0.343 1.463 6.06-1.982 12.318-3.31 18.638-4.223-1.962 2.189-4.182 4.13-6.632 5.769-7.264 4.961-14.59 9.931-22.508 13.813-2.159 0.861-4.701 2.251-7.015 1.11-0.851-4.566 1.598-8.925 3.539-12.889 6.921-13.003 18.575-24.48 33.332-27.707 22.456-5.085 45.629-3.819 68.469-5.013z"
    fill="#E1991C" />
  <path
    d="m596.1 266.61c7.295-2.355 13.729 7.835 9.973 13.958-1.329 1.982-4.099 1.691-6.175 1.702-5.012-1.526-8.281-7.565-6.755-12.619 0.425-1.411 1.525-2.605 2.957-3.041z"
    fill="#fff" />
  <path
    d="m494.17 301.54c5.593-2.626 11.934 3.289 10.626 9.038-0.571 5.324-7.503 8.821-11.768 5.147-5.168-3.196-4.472-11.882 1.142-14.185z"
    fill="#fff" />
  <path
    d="m625.15 300.58c1.298-3.123 3.114-6.62 6.569-7.7 2.75 6.85 8.229 12.464 9.402 19.946 2.169 10.751-1.764 21.45-6.444 30.966-5.293-0.664-7.96-6.123-9.713-10.544-3.466-10.501-3.653-22.238 0.186-32.668z"
    fill="#FF2E1E" />
  <path
    d="m557.26 339.6c5.23-2.553 11.021-3.549 16.51-5.407 4.359 3.923 7.628 8.842 10.679 13.802-1.246 10.502-3.176 20.931-6.279 31.049-9.588-1.121-19.291-1.328-28.859-2.127-4.587-5.49-7.098-12.328-10.025-18.762-0.114-1.443 0.28-2.833 1.152-3.985 4.13-6.279 10.066-11.301 16.822-14.57z"
    fill="#FF2E1E" />
  <path
    d="m462.25 346.36c4.722-8.26 16.894-9.879 24.314-4.379 12.65 8.499 15.12 28.444 4.4 39.476-5.967 0.788-11.726 2.801-17.714 3.362-5.863-1.619-9.651-6.953-11.996-12.245-3.394-8.292-3.518-18.316 0.996-26.214z"
    fill="#FF2E1E" />
  <path
    d="m553.8 337.2c4.556-2.573 6.331-7.959 10.72-10.72 3.155 2.48 6.413 4.857 9.257 7.721-5.49 1.858-11.28 2.854-16.511 5.407-6.755 3.269-12.691 8.291-16.821 14.569-0.872 1.152-1.266 2.543-1.152 3.985-1.692-5.884-4.473-11.373-6.061-17.278 7.005 0.758 14.612 0.581 20.568-3.684z"
    fill="#BF2E00" />
  <path
    d="m257.71 373.66c3.29-6.693 6.009-13.708 10.004-20.028 0.052 5.105-0.934 10.149-0.82 15.254 1.422-3.818 2.584-7.762 4.67-11.29 0.498 3.632 0.841 7.285 1.183 10.938 1.982-3.487 4.037-6.943 6.403-10.181-1.619 7.285-4.275 14.383-4.898 21.855 2.688-0.788 5.23-1.951 7.669-3.321 8.52-4.503 17.818-7.087 26.908-10.097 0.011 7.233-0.342 14.497 0.125 21.72 1.11 5.303 0.882 10.73 0.851 16.106-3.134 2.885-6.092 5.998-8.271 9.682-1.307-8.997-4.016-17.735-5.51-26.712-10.679 3.57-21.066 7.918-31.651 11.758-5.345 2.076-10.907 3.663-15.992 6.361-0.083-5.769 0.322-11.508 1.142-17.205-0.312-5.127 0.788-10.16 0.913-15.265 1.546-3.902 3.196-7.794 5.375-11.384 0.26-0.052 0.789-0.156 1.049-0.208 0.664 3.964 0.695 8.001 0.85 12.017z"
    fill="#BF2E00" />
  <path
    d="m405.7 372.81c9.07-3.061 17.942-6.766 26.14-11.747-4.161 7.129-8.353 14.258-12.317 21.512-3.892 6.662-7.317 13.802-12.9 19.271-1.317 1.359-3.217 1.754-4.939 2.304-2.563-3.363-1.65-7.794-1.09-11.644 1.256-6.662 2.771-13.324 5.106-19.696z"
    fill="#BF2E00" />
  <path
    d="m357.62 382.8c8.852-1.484 17.724-2.926 26.566-4.545-2.667 4.224-6.061 7.939-8.655 12.214-5.365 7.887-9.641 16.459-15.286 24.159-2.449 3.134-5.334 6.88-9.755 6.693-0.996-2.874-1.515-5.905-1.12-8.935 1.058-10.222 3.673-20.35 8.25-29.586z"
    fill="#BF2E00" />
  <defs>
    <filter id="d" x="457" y="34" width="373" height="183" color-interpolation-filters="sRGB"
      filterUnits="userSpaceOnUse">
      <feFlood flood-opacity="0" result="BackgroundImageFix" />
      <feColorMatrix in="SourceAlpha" result="hardAlpha" values="0 0 0 0 0 0 0 0 0 0 0 0 0 0 0 0 0 0 127 0" />
      <feOffset dx="4" dy="4" />
      <feGaussianBlur stdDeviation="2" />
      <feColorMatrix values="0 0 0 0 0.129167 0 0 0 0 0.129167 0 0 0 0 0.129167 0 0 0 0.1 0" />
      <feBlend in2="BackgroundImageFix" result="effect1_dropShadow_892_12577" />
      <feBlend in="SourceGraphic" in2="effect1_dropShadow_892_12577" result="shape" />
    </filter>
    <filter id="c" x="94" y="380" width="246" height="122" color-interpolation-filters="sRGB"
      filterUnits="userSpaceOnUse">
      <feFlood flood-opacity="0" result="BackgroundImageFix" />
      <feColorMatrix in="SourceAlpha" result="hardAlpha" values="0 0 0 0 0 0 0 0 0 0 0 0 0 0 0 0 0 0 127 0" />
      <feOffset dx="4" dy="4" />
      <feGaussianBlur stdDeviation="2" />
      <feColorMatrix values="0 0 0 0 0.129167 0 0 0 0 0.129167 0 0 0 0 0.129167 0 0 0 0.1 0" />
      <feBlend in2="BackgroundImageFix" result="effect1_dropShadow_892_12577" />
      <feBlend in="SourceGraphic" in2="effect1_dropShadow_892_12577" result="shape" />
    </filter>
    <filter id="b" x="655.73" y="0" width="367.32" height="369" color-interpolation-filters="sRGB"
      filterUnits="userSpaceOnUse">
      <feFlood flood-opacity="0" result="BackgroundImageFix" />
      <feColorMatrix in="SourceAlpha" result="hardAlpha" values="0 0 0 0 0 0 0 0 0 0 0 0 0 0 0 0 0 0 127 0" />
      <feOffset dx="4" dy="4" />
      <feGaussianBlur stdDeviation="8" />
      <feColorMatrix values="0 0 0 0 0.00392157 0 0 0 0 0.109804 0 0 0 0 0.25098 0 0 0 0.2 0" />
      <feBlend in2="BackgroundImageFix" result="effect1_dropShadow_892_12577" />
      <feBlend in="SourceGraphic" in2="effect1_dropShadow_892_12577" result="shape" />
    </filter>
    <radialGradient id="a" cx="0" cy="0" r="1" gradientTransform="translate(478 702) rotate(90) scale(10 93)"
      gradientUnits="userSpaceOnUse">
      <stop stop-color="#212121" stop-opacity=".54" offset="0" />
      <stop stop-color="#C4C4C4" stop-opacity="0" offset="1" />
    </radialGradient>
    <clipPath id="e">
      <rect transform="translate(134 72.664) rotate(-4.415)" width="177.5" height="178.14" fill="#fff" />
    </clipPath>
  </defs>
</svg>